<?xml version="1.0" encoding="UTF-8" standalone="no"?>
<!-- Created with Inkscape (http://www.inkscape.org/) -->

<svg
   version="1.1"
   id="svg1"
   width="294.05426"
   height="79.888252"
   viewBox="0 0 294.05426 79.888254"
   sodipodi:docname="logo.png"
   xmlns:inkscape="http://www.inkscape.org/namespaces/inkscape"
   xmlns:sodipodi="http://sodipodi.sourceforge.net/DTD/sodipodi-0.dtd"
   xmlns="http://www.w3.org/2000/svg"
   xmlns:svg="http://www.w3.org/2000/svg">
  <defs
     id="defs1" />
  <sodipodi:namedview
     id="namedview1"
     pagecolor="#ffffff"
     bordercolor="#999999"
     borderopacity="1"
     inkscape:showpageshadow="2"
     inkscape:pageopacity="0"
     inkscape:pagecheckerboard="0"
     inkscape:deskcolor="#d1d1d1" />
  <g
     inkscape:groupmode="layer"
     inkscape:label="Image"
     id="g1"
     transform="translate(-56.772966,-65.691218)">
    <path
       style="fill:#000000"
       d="m 74.399998,135.68328 -17.2,-9.8756 -0.213516,-19.99897 -0.213516,-19.998976 14.613515,-8.261074 c 8.037434,-4.543591 16.053516,-9.070257 17.813516,-10.059258 l 3.2,-1.798184 17.200003,9.85057 17.2,9.850569 0.20095,20.303823 0.20095,20.30382 -17.19087,9.8 c -9.45498,5.39 -17.465411,9.79075 -17.800954,9.77945 -0.335543,-0.0113 -8.350079,-4.46458 -17.810078,-9.89617 z m 28.780212,-11.3701 c 6.82956,-11.73708 10.34758,-18.54784 10.02085,-19.4 -1.37687,-3.59114 -20.837428,-35.993419 -21.316606,-35.492649 -0.304967,0.318709 -5.243756,8.637192 -10.975087,18.485518 l -10.420602,17.906051 2.155616,3.72711 c 1.185589,2.04991 5.935617,10.27032 10.555616,18.26759 4.62,7.99726 8.637574,14.55234 8.927941,14.56684 0.290368,0.0145 5.263891,-8.11271 11.052272,-18.06046 z m -23.236642,1.1575 c -4.939956,-8.50887 -9.387934,-15.9176 -9.884398,-16.46385 -0.692899,-0.76238 -1.96656,0.83881 -5.480916,6.89037 -2.518041,4.33595 -4.578256,8.27397 -4.578256,8.75116 0,0.89654 28.039434,17.17888 28.606613,16.6117 0.175281,-0.17528 -3.723088,-7.2805 -8.663043,-15.78938 z m 30.999282,7.70794 c 7.40143,-4.2435 13.5932,-7.85072 13.7595,-8.01605 0.35201,-0.34998 -8.60403,-16.20737 -9.44846,-16.72926 -0.31229,-0.193 -4.48016,6.38055 -9.26193,14.60789 -4.78178,8.22734 -9.255176,15.84148 -9.940883,16.92031 l -1.246741,1.96151 1.340688,-0.51448 c 0.737379,-0.28295 7.396406,-3.98642 14.797826,-8.22992 z m -46.267775,-20.9182 c 1.828708,-3.15676 3.324923,-6.114 3.324923,-6.57162 0,-0.81227 -6.78175,-12.540045 -8.123915,-14.048798 -0.371847,-0.418 -0.676085,6.052103 -0.676085,14.378008 0,16.90954 -0.42419,16.4259 5.475077,6.24241 z M 125.42897,97.800003 125.2,90.000002 l -4.5939,7.889666 -4.5939,7.889662 4.5939,7.71034 4.5939,7.71033 0.22897,-7.8 c 0.12593,-4.29 0.12593,-11.31 0,-15.599997 z M 79.399998,86.945401 c 5.169999,-8.934989 9.399999,-16.467919 9.399999,-16.739844 0,-0.271925 -6.57,3.268593 -14.599999,7.867817 -8.03,4.599224 -14.525703,8.667108 -14.434895,9.039742 0.341379,1.400865 9.20895,16.086694 9.710789,16.082304 0.288258,-0.003 4.754106,-7.31503 9.924106,-16.250019 z m 40.827902,8.207036 c 2.54534,-4.408215 4.44399,-8.312495 4.21922,-8.676179 -0.30469,-0.493015 -17.78273,-10.649917 -28.726937,-16.693909 -0.916768,-0.506289 -0.07405,1.034078 10.076117,18.417653 4.81713,8.250001 8.99361,14.992658 9.28106,14.983688 0.28745,-0.009 2.60519,-3.623039 5.15054,-8.031253 z m 40.19957,33.561013 c 0.32745,-1.03172 4.00216,-10.16431 8.16602,-20.29465 4.16386,-10.130338 7.75224,-18.868798 7.97417,-19.418798 0.22193,-0.55 0.67644,-1 1.01002,-1 0.49336,0 5.93853,12.486648 17.37669,39.847498 l 1.10678,2.64749 -3.29058,-0.24749 L 189.48,130 l -2.99598,-7.2 -2.99597,-7.2 -8.02846,-0.22671 -8.02847,-0.22671 -2.78324,7.38261 c -1.53079,4.06043 -3.24057,7.53504 -3.79952,7.72136 -0.73247,0.24416 -0.85001,-0.18508 -0.42089,-1.5371 z m 21.97252,-15.56406 c 0,-1.17553 -6.67122,-16.349387 -7.18804,-16.349387 -0.32445,0 -1.32137,1.89 -2.21539,4.199997 -0.89402,2.31 -2.37873,6.09 -3.29935,8.4 l -1.67387,4.2 h 7.18833 c 3.95358,0 7.18832,-0.20277 7.18832,-0.45061 z m 24.8,-3.85672 V 88.000002 h 8.22566 c 13.98124,0 20.7835,2.887109 25.05271,10.633221 2.0282,3.679997 2.29435,4.961197 2.27822,10.966777 -0.0202,7.50895 -1.43121,11.32187 -5.68332,15.35756 -4.10779,3.89871 -7.75085,4.89623 -19.27327,5.27725 l -10.6,0.35052 z m 19.13339,18.72644 c 3.39636,-0.97406 6.12671,-3.47811 8.30771,-7.61911 1.31827,-2.50295 1.6934,-4.68121 1.72215,-10 0.0453,-8.38675 -1.62859,-13.188721 -5.96226,-17.103931 -3.46022,-3.126105 -6.30872,-3.915205 -12.80099,-3.546172 l -4.4,0.250105 -0.21422,19.399998 -0.21422,19.4 h 5.4195 c 2.98073,0 6.64478,-0.3514 8.14233,-0.78089 z M 254.39999,109.2 V 88.000002 l 7.8,0.03502 c 13.04241,0.05855 18.96364,3.294925 18.96364,10.364984 0,4.071774 -2.24209,7.096334 -7.04543,9.504254 l -3.79864,1.90426 2.24639,1.36611 c 3.57828,2.17608 8.58162,9.72294 11.45304,17.27535 l 0.7414,1.95002 -2.1802,-0.003 c -1.85149,-0.003 -2.41083,-0.57546 -3.70989,-3.8 -2.14737,-5.3302 -6.59251,-11.89024 -9.42232,-13.90524 -1.31677,-0.93762 -3.98125,-1.88366 -5.92106,-2.1023 l -3.52693,-0.39754 V 120.29596 130.4 h -2.8 -2.8 z m 15.19117,-1.59543 c 1.27144,-0.65749 2.87356,-1.99759 3.56027,-2.978 1.58054,-2.25654 1.62522,-8.777651 0.0806,-11.764612 -1.33944,-2.590185 -3.13278,-3.235689 -9.03204,-3.251032 l -4.2,-0.01092 V 99.200003 108.8 h 3.63973 c 2.00185,0 4.68,-0.53794 5.95144,-1.19543 z m 27.7577,22.27764 c -0.32649,-0.32649 -0.56126,-9.88355 -0.52172,-21.23791 l 0.0719,-20.644298 h 3.16376 3.16376 L 303.01327,109 l -0.21328,21 -2.42875,0.23792 c -1.33581,0.13085 -2.69588,-0.0292 -3.02238,-0.35571 z M 310.39999,129.6 c 0,-0.44 0.51387,-0.8 1.14194,-0.8 2.08433,0 3.994,-3.56846 11.25806,-21.03713 3.96,-9.523041 7.49904,-17.225793 7.86454,-17.11723 0.36549,0.108563 3.82261,7.820188 7.68248,17.13694 7.44855,17.97894 9.01341,21.01742 10.82421,21.01742 0.62389,0 1.35683,0.36 1.62877,0.8 0.31572,0.51085 -2.12503,0.8 -6.75279,0.8 -6.81903,0 -9.37221,-0.85769 -5.53795,-1.86037 1.4174,-0.37066 1.62745,-0.85607 1.23012,-2.84271 -0.26353,-1.31765 -1.12553,-3.76849 -1.91556,-5.44632 L 336.3874,117.2 h -7.54437 -7.54438 l -1.83641,4.56824 c -1.96276,4.88254 -1.78667,7.03176 0.57613,7.03176 0.80696,0 1.68969,0.36 1.96162,0.8 0.31296,0.50639 -1.72503,0.8 -5.55279,0.8 -3.49814,0 -6.04721,-0.33722 -6.04721,-0.8 z m 24.76057,-15.4 c -0.0626,-1.5883 -5.37768,-13.8 -6.00634,-13.8 -0.45269,0 -6.75423,13.56659 -6.75423,14.54118 0,0.14235 2.88,0.25882 6.4,0.25882 4.6077,0 6.38896,-0.28004 6.36057,-1 z m -6.61737,-31.167065 -3.65759,-4.232933 2.02477,-0.259659 c 1.11363,-0.142812 2.4784,-0.08558 3.03284,0.127171 1.06348,0.408098 3.36945,7.486481 2.66757,8.188362 -0.22549,0.225496 -2.05591,-1.494828 -4.06759,-3.822941 z"
       id="path1" />
  </g>
</svg>
